<svg viewBox="0 0 24 24" xmlns="http://www.w3.org/2000/svg">
  <path d="M13.976 9.15c-2.172-.806-3.356-1.426-3.356-2.409 0-.831.683-1.305 1.901-1.305 2.227 0 4.515.858 6.09 1.631l.89-5.494C18.252.975 15.697 0 12.165 0 9.667 0 7.589.654 6.104 1.872 4.56 3.147 3.757 4.992 3.757 7.218c0 4.039 2.467 5.76 6.476 7.219 0 1.056-.913 1.542-2.227 1.542-2.31 0-5.347-1.077-7.234-2.164l-.942 5.707C2.08 22.427 5.099 23.36 8.351 23.36c6.035 0 9.873-2.909 9.873-7.592 0-5.787-7.502-6.196-7.502-8.913 0-.75.602-1.222 1.654-1.222 1.488 0 3.328.513 4.6 1.258l1.000-5.741z" fill="#FFFFFF"/>
</svg>
